<?xml version="1.0" encoding="UTF-8" standalone="no"?>
<!DOCTYPE svg PUBLIC "-//W3C//DTD SVG 1.1//EN"
 "http://www.w3.org/Graphics/SVG/1.1/DTD/svg11.dtd">
<!-- Generated by graphviz version 16.1.0 (0)
 -->
<!-- Title: G Pages: 1 -->
<svg width="2544pt" height="552pt"
 viewBox="0.00 0.00 2544.00 552.00" xmlns="http://www.w3.org/2000/svg" xmlns:xlink="http://www.w3.org/1999/xlink">
<g id="graph0" class="graph" transform="scale(1 1) rotate(0) translate(4 548)">
<title>G</title>
<polygon fill="white" stroke="none" points="-4,4 -4,-548 2540,-548 2540,4 -4,4"/>
<!-- data.aws_caller_identity.current -->
<g id="node1" class="node">
<title>data.aws_caller_identity.current</title>
<polygon fill="none" stroke="black" points="930.75,-90 705.5,-90 705.5,-54 930.75,-54 930.75,-90"/>
<text xml:space="preserve" text-anchor="middle" x="818.12" y="-68.45" font-family="sans-serif" font-size="14.00">data.aws_caller_identity.current</text>
</g>
<!-- data.aws_region.current -->
<g id="node2" class="node">
<title>data.aws_region.current</title>
<polygon fill="none" stroke="black" points="906,-144 730.25,-144 730.25,-108 906,-108 906,-144"/>
<text xml:space="preserve" text-anchor="middle" x="818.12" y="-122.45" font-family="sans-serif" font-size="14.00">data.aws_region.current</text>
</g>
<!-- aws_api_gateway_deployment.comparison_engine -->
<g id="node3" class="node">
<title>aws_api_gateway_deployment.comparison_engine</title>
<polygon fill="none" stroke="black" points="1746.88,-117 1400.12,-117 1400.12,-81 1746.88,-81 1746.88,-117"/>
<text xml:space="preserve" text-anchor="middle" x="1573.5" y="-95.45" font-family="sans-serif" font-size="14.00">aws_api_gateway_deployment.comparison_engine</text>
</g>
<!-- aws_api_gateway_integration.sqs -->
<g id="node4" class="node">
<title>aws_api_gateway_integration.sqs</title>
<polygon fill="none" stroke="black" points="1285.38,-117 1052.62,-117 1052.62,-81 1285.38,-81 1285.38,-117"/>
<text xml:space="preserve" text-anchor="middle" x="1169" y="-95.45" font-family="sans-serif" font-size="14.00">aws_api_gateway_integration.sqs</text>
</g>
<!-- aws_api_gateway_deployment.comparison_engine&#45;&gt;aws_api_gateway_integration.sqs -->
<g id="edge1" class="edge">
<title>aws_api_gateway_deployment.comparison_engine&#45;&gt;aws_api_gateway_integration.sqs</title>
<path fill="none" stroke="black" d="M1399.76,-99C1365.33,-99 1329.77,-99 1297.21,-99"/>
<polygon fill="black" stroke="black" points="1297.34,-95.5 1287.34,-99 1297.34,-102.5 1297.34,-95.5"/>
</g>
<!-- aws_api_gateway_integration.sqs&#45;&gt;data.aws_caller_identity.current -->
<g id="edge2" class="edge">
<title>aws_api_gateway_integration.sqs&#45;&gt;data.aws_caller_identity.current</title>
<path fill="none" stroke="black" d="M1052.31,-90.05C1017.15,-87.33 978.37,-84.32 942.7,-81.56"/>
<polygon fill="black" stroke="black" points="942.99,-78.08 932.75,-80.79 942.45,-85.05 942.99,-78.08"/>
</g>
<!-- aws_api_gateway_integration.sqs&#45;&gt;data.aws_region.current -->
<g id="edge3" class="edge">
<title>aws_api_gateway_integration.sqs&#45;&gt;data.aws_region.current</title>
<path fill="none" stroke="black" d="M1052.31,-107.95C1008.71,-111.33 959.56,-115.13 917.66,-118.37"/>
<polygon fill="black" stroke="black" points="917.54,-114.87 907.84,-119.13 918.08,-121.85 917.54,-114.87"/>
</g>
<!-- aws_api_gateway_method.enqueue_job -->
<g id="node6" class="node">
<title>aws_api_gateway_method.enqueue_job</title>
<polygon fill="none" stroke="black" points="955.88,-36 680.38,-36 680.38,0 955.88,0 955.88,-36"/>
<text xml:space="preserve" text-anchor="middle" x="818.12" y="-14.45" font-family="sans-serif" font-size="14.00">aws_api_gateway_method.enqueue_job</text>
</g>
<!-- aws_api_gateway_integration.sqs&#45;&gt;aws_api_gateway_method.enqueue_job -->
<g id="edge4" class="edge">
<title>aws_api_gateway_integration.sqs&#45;&gt;aws_api_gateway_method.enqueue_job</title>
<path fill="none" stroke="black" d="M1105.37,-80.6C1066.17,-69.45 1014.51,-55.42 968.25,-45 958.54,-42.81 948.45,-40.68 938.29,-38.64"/>
<polygon fill="black" stroke="black" points="939.24,-35.26 928.75,-36.75 937.88,-42.13 939.24,-35.26"/>
</g>
<!-- aws_iam_role.api_gateway_sqs -->
<g id="node15" class="node">
<title>aws_iam_role.api_gateway_sqs</title>
<polygon fill="none" stroke="black" points="925.5,-198 710.75,-198 710.75,-162 925.5,-162 925.5,-198"/>
<text xml:space="preserve" text-anchor="middle" x="818.12" y="-176.45" font-family="sans-serif" font-size="14.00">aws_iam_role.api_gateway_sqs</text>
</g>
<!-- aws_api_gateway_integration.sqs&#45;&gt;aws_iam_role.api_gateway_sqs -->
<g id="edge5" class="edge">
<title>aws_api_gateway_integration.sqs&#45;&gt;aws_iam_role.api_gateway_sqs</title>
<path fill="none" stroke="black" d="M1105.37,-117.4C1066.17,-128.55 1014.51,-142.58 968.25,-153 958.06,-155.3 947.44,-157.53 936.77,-159.66"/>
<polygon fill="black" stroke="black" points="936.28,-156.19 927.14,-161.56 937.63,-163.06 936.28,-156.19"/>
</g>
<!-- aws_sqs_queue.comparison_engine_queue -->
<g id="node24" class="node">
<title>aws_sqs_queue.comparison_engine_queue</title>
<polygon fill="none" stroke="black" points="968.25,-252 668,-252 668,-216 968.25,-216 968.25,-252"/>
<text xml:space="preserve" text-anchor="middle" x="818.12" y="-230.45" font-family="sans-serif" font-size="14.00">aws_sqs_queue.comparison_engine_queue</text>
</g>
<!-- aws_api_gateway_integration.sqs&#45;&gt;aws_sqs_queue.comparison_engine_queue -->
<g id="edge6" class="edge">
<title>aws_api_gateway_integration.sqs&#45;&gt;aws_sqs_queue.comparison_engine_queue</title>
<path fill="none" stroke="black" d="M1136.84,-117.42C1089.74,-145 1002.29,-195.06 968.25,-207 962.59,-208.99 956.75,-210.83 950.81,-212.55"/>
<polygon fill="black" stroke="black" points="950.21,-209.08 941.49,-215.1 952.06,-215.84 950.21,-209.08"/>
</g>
<!-- aws_api_gateway_integration_response.accepted -->
<g id="node5" class="node">
<title>aws_api_gateway_integration_response.accepted</title>
<polygon fill="none" stroke="black" points="1742,-36 1405,-36 1405,0 1742,0 1742,-36"/>
<text xml:space="preserve" text-anchor="middle" x="1573.5" y="-14.45" font-family="sans-serif" font-size="14.00">aws_api_gateway_integration_response.accepted</text>
</g>
<!-- aws_api_gateway_integration_response.accepted&#45;&gt;aws_api_gateway_integration.sqs -->
<g id="edge7" class="edge">
<title>aws_api_gateway_integration_response.accepted&#45;&gt;aws_api_gateway_integration.sqs</title>
<path fill="none" stroke="black" d="M1480.66,-36.48C1418.7,-48.95 1336.86,-65.42 1272.73,-78.33"/>
<polygon fill="black" stroke="black" points="1272.39,-74.83 1263.27,-80.23 1273.77,-81.69 1272.39,-74.83"/>
</g>
<!-- aws_api_gateway_method_response.accepted -->
<g id="node7" class="node">
<title>aws_api_gateway_method_response.accepted</title>
<polygon fill="none" stroke="black" points="1326.62,-36 1011.38,-36 1011.38,0 1326.62,0 1326.62,-36"/>
<text xml:space="preserve" text-anchor="middle" x="1169" y="-14.45" font-family="sans-serif" font-size="14.00">aws_api_gateway_method_response.accepted</text>
</g>
<!-- aws_api_gateway_integration_response.accepted&#45;&gt;aws_api_gateway_method_response.accepted -->
<g id="edge8" class="edge">
<title>aws_api_gateway_integration_response.accepted&#45;&gt;aws_api_gateway_method_response.accepted</title>
<path fill="none" stroke="black" d="M1404.72,-18C1382.77,-18 1360.27,-18 1338.31,-18"/>
<polygon fill="black" stroke="black" points="1338.4,-14.5 1328.4,-18 1338.4,-21.5 1338.4,-14.5"/>
</g>
<!-- aws_api_gateway_resource.jobs -->
<g id="node8" class="node">
<title>aws_api_gateway_resource.jobs</title>
<polygon fill="none" stroke="black" points="604.25,-36 382,-36 382,0 604.25,0 604.25,-36"/>
<text xml:space="preserve" text-anchor="middle" x="493.12" y="-14.45" font-family="sans-serif" font-size="14.00">aws_api_gateway_resource.jobs</text>
</g>
<!-- aws_api_gateway_method.enqueue_job&#45;&gt;aws_api_gateway_resource.jobs -->
<g id="edge9" class="edge">
<title>aws_api_gateway_method.enqueue_job&#45;&gt;aws_api_gateway_resource.jobs</title>
<path fill="none" stroke="black" d="M680.14,-18C658.72,-18 636.7,-18 615.66,-18"/>
<polygon fill="black" stroke="black" points="615.93,-14.5 605.93,-18 615.93,-21.5 615.93,-14.5"/>
</g>
<!-- aws_api_gateway_method_response.accepted&#45;&gt;aws_api_gateway_method.enqueue_job -->
<g id="edge10" class="edge">
<title>aws_api_gateway_method_response.accepted&#45;&gt;aws_api_gateway_method.enqueue_job</title>
<path fill="none" stroke="black" d="M1010.91,-18C996.5,-18 981.93,-18 967.59,-18"/>
<polygon fill="black" stroke="black" points="967.67,-14.5 957.67,-18 967.67,-21.5 967.67,-14.5"/>
</g>
<!-- aws_api_gateway_rest_api.comparison_engine -->
<g id="node9" class="node">
<title>aws_api_gateway_rest_api.comparison_engine</title>
<polygon fill="none" stroke="black" points="318.25,-36 0,-36 0,0 318.25,0 318.25,-36"/>
<text xml:space="preserve" text-anchor="middle" x="159.12" y="-14.45" font-family="sans-serif" font-size="14.00">aws_api_gateway_rest_api.comparison_engine</text>
</g>
<!-- aws_api_gateway_resource.jobs&#45;&gt;aws_api_gateway_rest_api.comparison_engine -->
<g id="edge11" class="edge">
<title>aws_api_gateway_resource.jobs&#45;&gt;aws_api_gateway_rest_api.comparison_engine</title>
<path fill="none" stroke="black" d="M381.57,-18C365.02,-18 347.63,-18 330.18,-18"/>
<polygon fill="black" stroke="black" points="330.23,-14.5 320.23,-18 330.23,-21.5 330.23,-14.5"/>
</g>
<!-- aws_api_gateway_stage.production -->
<g id="node10" class="node">
<title>aws_api_gateway_stage.production</title>
<polygon fill="none" stroke="black" points="2101.12,-117 1855.62,-117 1855.62,-81 2101.12,-81 2101.12,-117"/>
<text xml:space="preserve" text-anchor="middle" x="1978.38" y="-95.45" font-family="sans-serif" font-size="14.00">aws_api_gateway_stage.production</text>
</g>
<!-- aws_api_gateway_stage.production&#45;&gt;aws_api_gateway_deployment.comparison_engine -->
<g id="edge12" class="edge">
<title>aws_api_gateway_stage.production&#45;&gt;aws_api_gateway_deployment.comparison_engine</title>
<path fill="none" stroke="black" d="M1855.13,-99C1824.55,-99 1791.07,-99 1758.23,-99"/>
<polygon fill="black" stroke="black" points="1758.64,-95.5 1748.64,-99 1758.64,-102.5 1758.64,-95.5"/>
</g>
<!-- aws_autoscaling_group.comparison_engine_asg -->
<g id="node11" class="node">
<title>aws_autoscaling_group.comparison_engine_asg</title>
<polygon fill="none" stroke="black" points="2143.5,-359 1813.25,-359 1813.25,-323 2143.5,-323 2143.5,-359"/>
<text xml:space="preserve" text-anchor="middle" x="1978.38" y="-337.45" font-family="sans-serif" font-size="14.00">aws_autoscaling_group.comparison_engine_asg</text>
</g>
<!-- aws_launch_template.comparison_engine_launch_template -->
<g id="node19" class="node">
<title>aws_launch_template.comparison_engine_launch_template</title>
<polygon fill="none" stroke="black" points="1777.25,-467 1369.75,-467 1369.75,-431 1777.25,-431 1777.25,-467"/>
<text xml:space="preserve" text-anchor="middle" x="1573.5" y="-445.45" font-family="sans-serif" font-size="14.00">aws_launch_template.comparison_engine_launch_template</text>
</g>
<!-- aws_autoscaling_group.comparison_engine_asg&#45;&gt;aws_launch_template.comparison_engine_launch_template -->
<g id="edge13" class="edge">
<title>aws_autoscaling_group.comparison_engine_asg&#45;&gt;aws_launch_template.comparison_engine_launch_template</title>
<path fill="none" stroke="black" d="M1939.99,-359.46C1900.5,-378.16 1835.95,-406.48 1777.25,-422 1768.65,-424.27 1759.78,-426.36 1750.8,-428.28"/>
<polygon fill="black" stroke="black" points="1750.36,-424.8 1741.26,-430.23 1751.76,-431.65 1750.36,-424.8"/>
</g>
<!-- aws_subnet.comparison_engine_subnet_ec2_1 -->
<g id="node27" class="node">
<title>aws_subnet.comparison_engine_subnet_ec2_1</title>
<polygon fill="none" stroke="black" points="1735.25,-359 1411.75,-359 1411.75,-323 1735.25,-323 1735.25,-359"/>
<text xml:space="preserve" text-anchor="middle" x="1573.5" y="-337.45" font-family="sans-serif" font-size="14.00">aws_subnet.comparison_engine_subnet_ec2_1</text>
</g>
<!-- aws_autoscaling_group.comparison_engine_asg&#45;&gt;aws_subnet.comparison_engine_subnet_ec2_1 -->
<g id="edge14" class="edge">
<title>aws_autoscaling_group.comparison_engine_asg&#45;&gt;aws_subnet.comparison_engine_subnet_ec2_1</title>
<path fill="none" stroke="black" d="M1812.93,-341C1791.16,-341 1768.79,-341 1746.89,-341"/>
<polygon fill="black" stroke="black" points="1747,-337.5 1737,-341 1747,-344.5 1747,-337.5"/>
</g>
<!-- aws_subnet.comparison_engine_subnet_ec2_2 -->
<g id="node28" class="node">
<title>aws_subnet.comparison_engine_subnet_ec2_2</title>
<polygon fill="none" stroke="black" points="1735.25,-305 1411.75,-305 1411.75,-269 1735.25,-269 1735.25,-305"/>
<text xml:space="preserve" text-anchor="middle" x="1573.5" y="-283.45" font-family="sans-serif" font-size="14.00">aws_subnet.comparison_engine_subnet_ec2_2</text>
</g>
<!-- aws_autoscaling_group.comparison_engine_asg&#45;&gt;aws_subnet.comparison_engine_subnet_ec2_2 -->
<g id="edge15" class="edge">
<title>aws_autoscaling_group.comparison_engine_asg&#45;&gt;aws_subnet.comparison_engine_subnet_ec2_2</title>
<path fill="none" stroke="black" d="M1840.66,-322.52C1819.43,-319.66 1797.75,-316.75 1777.25,-314 1760.28,-311.73 1742.51,-309.35 1724.84,-306.99"/>
<polygon fill="black" stroke="black" points="1725.44,-303.54 1715.06,-305.69 1724.51,-310.48 1725.44,-303.54"/>
</g>
<!-- aws_db_instance.comparison_engine -->
<g id="node12" class="node">
<title>aws_db_instance.comparison_engine</title>
<polygon fill="none" stroke="black" points="2108.25,-544 1848.5,-544 1848.5,-508 2108.25,-508 2108.25,-544"/>
<text xml:space="preserve" text-anchor="middle" x="1978.38" y="-522.45" font-family="sans-serif" font-size="14.00">aws_db_instance.comparison_engine</text>
</g>
<!-- aws_db_subnet_group.comparison_engine -->
<g id="node13" class="node">
<title>aws_db_subnet_group.comparison_engine</title>
<polygon fill="none" stroke="black" points="1316.5,-544 1021.5,-544 1021.5,-508 1316.5,-508 1316.5,-544"/>
<text xml:space="preserve" text-anchor="middle" x="1169" y="-522.45" font-family="sans-serif" font-size="14.00">aws_db_subnet_group.comparison_engine</text>
</g>
<!-- aws_db_instance.comparison_engine&#45;&gt;aws_db_subnet_group.comparison_engine -->
<g id="edge16" class="edge">
<title>aws_db_instance.comparison_engine&#45;&gt;aws_db_subnet_group.comparison_engine</title>
<path fill="none" stroke="black" d="M1848.2,-528.96C1824.6,-529.39 1800.18,-529.77 1777.25,-530 1596.15,-531.81 1550.85,-531.81 1369.75,-530 1356.27,-529.87 1342.28,-529.68 1328.25,-529.46"/>
<polygon fill="black" stroke="black" points="1328.56,-525.96 1318.5,-529.3 1328.45,-532.96 1328.56,-525.96"/>
</g>
<!-- aws_security_group.rds -->
<g id="node21" class="node">
<title>aws_security_group.rds</title>
<polygon fill="none" stroke="black" points="1658.38,-521 1488.62,-521 1488.62,-485 1658.38,-485 1658.38,-521"/>
<text xml:space="preserve" text-anchor="middle" x="1573.5" y="-499.45" font-family="sans-serif" font-size="14.00">aws_security_group.rds</text>
</g>
<!-- aws_db_instance.comparison_engine&#45;&gt;aws_security_group.rds -->
<g id="edge17" class="edge">
<title>aws_db_instance.comparison_engine&#45;&gt;aws_security_group.rds</title>
<path fill="none" stroke="black" d="M1848.24,-518.63C1790.45,-515.33 1723.51,-511.51 1670.29,-508.47"/>
<polygon fill="black" stroke="black" points="1670.5,-504.98 1660.32,-507.9 1670.11,-511.96 1670.5,-504.98"/>
</g>
<!-- aws_subnet.comparison_engine_rds_1 -->
<g id="node25" class="node">
<title>aws_subnet.comparison_engine_rds_1</title>
<polygon fill="none" stroke="black" points="952.12,-463 684.12,-463 684.12,-427 952.12,-427 952.12,-463"/>
<text xml:space="preserve" text-anchor="middle" x="818.12" y="-441.45" font-family="sans-serif" font-size="14.00">aws_subnet.comparison_engine_rds_1</text>
</g>
<!-- aws_db_subnet_group.comparison_engine&#45;&gt;aws_subnet.comparison_engine_rds_1 -->
<g id="edge18" class="edge">
<title>aws_db_subnet_group.comparison_engine&#45;&gt;aws_subnet.comparison_engine_rds_1</title>
<path fill="none" stroke="black" d="M1027.78,-507.57C1019.7,-505.06 1011.8,-502.22 1004.25,-499 985.86,-491.15 986.58,-480 968.25,-472 964.23,-470.25 960.1,-468.6 955.89,-467.07"/>
<polygon fill="black" stroke="black" points="957.31,-463.86 946.72,-463.96 955.06,-470.49 957.31,-463.86"/>
</g>
<!-- aws_subnet.comparison_engine_rds_2 -->
<g id="node26" class="node">
<title>aws_subnet.comparison_engine_rds_2</title>
<polygon fill="none" stroke="black" points="952.12,-517 684.12,-517 684.12,-481 952.12,-481 952.12,-517"/>
<text xml:space="preserve" text-anchor="middle" x="818.12" y="-495.45" font-family="sans-serif" font-size="14.00">aws_subnet.comparison_engine_rds_2</text>
</g>
<!-- aws_db_subnet_group.comparison_engine&#45;&gt;aws_subnet.comparison_engine_rds_2 -->
<g id="edge19" class="edge">
<title>aws_db_subnet_group.comparison_engine&#45;&gt;aws_subnet.comparison_engine_rds_2</title>
<path fill="none" stroke="black" d="M1021.06,-514.63C1002.15,-513.16 982.81,-511.67 963.94,-510.21"/>
<polygon fill="black" stroke="black" points="964.33,-506.73 954.09,-509.45 963.79,-513.71 964.33,-506.73"/>
</g>
<!-- aws_iam_instance_profile.comparison_worker -->
<g id="node14" class="node">
<title>aws_iam_instance_profile.comparison_worker</title>
<polygon fill="none" stroke="black" points="1327,-436 1011,-436 1011,-400 1327,-400 1327,-436"/>
<text xml:space="preserve" text-anchor="middle" x="1169" y="-414.45" font-family="sans-serif" font-size="14.00">aws_iam_instance_profile.comparison_worker</text>
</g>
<!-- aws_iam_role.comparison_worker -->
<g id="node16" class="node">
<title>aws_iam_role.comparison_worker</title>
<polygon fill="none" stroke="black" points="936.75,-306 699.5,-306 699.5,-270 936.75,-270 936.75,-306"/>
<text xml:space="preserve" text-anchor="middle" x="818.12" y="-284.45" font-family="sans-serif" font-size="14.00">aws_iam_role.comparison_worker</text>
</g>
<!-- aws_iam_instance_profile.comparison_worker&#45;&gt;aws_iam_role.comparison_worker -->
<g id="edge20" class="edge">
<title>aws_iam_instance_profile.comparison_worker&#45;&gt;aws_iam_role.comparison_worker</title>
<path fill="none" stroke="black" d="M1118.39,-399.51C1055.35,-376.02 946.65,-335.52 879.05,-310.33"/>
<polygon fill="black" stroke="black" points="880.58,-307.16 869.99,-306.95 878.14,-313.72 880.58,-307.16"/>
</g>
<!-- aws_iam_role_policy.api_gateway_sqs -->
<g id="node17" class="node">
<title>aws_iam_role_policy.api_gateway_sqs</title>
<polygon fill="none" stroke="black" points="1298.12,-236 1039.88,-236 1039.88,-200 1298.12,-200 1298.12,-236"/>
<text xml:space="preserve" text-anchor="middle" x="1169" y="-214.45" font-family="sans-serif" font-size="14.00">aws_iam_role_policy.api_gateway_sqs</text>
</g>
<!-- aws_iam_role_policy.api_gateway_sqs&#45;&gt;aws_iam_role.api_gateway_sqs -->
<g id="edge21" class="edge">
<title>aws_iam_role_policy.api_gateway_sqs&#45;&gt;aws_iam_role.api_gateway_sqs</title>
<path fill="none" stroke="black" d="M1039.58,-204.01C1005.98,-200.35 969.92,-196.42 936.9,-192.83"/>
<polygon fill="black" stroke="black" points="937.66,-189.39 927.34,-191.79 936.9,-196.35 937.66,-189.39"/>
</g>
<!-- aws_iam_role_policy.api_gateway_sqs&#45;&gt;aws_sqs_queue.comparison_engine_queue -->
<g id="edge22" class="edge">
<title>aws_iam_role_policy.api_gateway_sqs&#45;&gt;aws_sqs_queue.comparison_engine_queue</title>
<path fill="none" stroke="black" d="M1039.58,-223.89C1020.16,-224.78 999.92,-225.71 979.93,-226.63"/>
<polygon fill="black" stroke="black" points="979.86,-223.12 970.03,-227.08 980.18,-230.12 979.86,-223.12"/>
</g>
<!-- aws_iam_role_policy.comparison_worker_sqs -->
<g id="node18" class="node">
<title>aws_iam_role_policy.comparison_worker_sqs</title>
<polygon fill="none" stroke="black" points="1323.25,-301 1014.75,-301 1014.75,-265 1323.25,-265 1323.25,-301"/>
<text xml:space="preserve" text-anchor="middle" x="1169" y="-279.45" font-family="sans-serif" font-size="14.00">aws_iam_role_policy.comparison_worker_sqs</text>
</g>
<!-- aws_iam_role_policy.comparison_worker_sqs&#45;&gt;aws_iam_role.comparison_worker -->
<g id="edge23" class="edge">
<title>aws_iam_role_policy.comparison_worker_sqs&#45;&gt;aws_iam_role.comparison_worker</title>
<path fill="none" stroke="black" d="M1014.47,-285.2C992.47,-285.52 970.01,-285.84 948.53,-286.15"/>
<polygon fill="black" stroke="black" points="948.52,-282.65 938.57,-286.29 948.62,-289.64 948.52,-282.65"/>
</g>
<!-- aws_iam_role_policy.comparison_worker_sqs&#45;&gt;aws_sqs_queue.comparison_engine_queue -->
<g id="edge24" class="edge">
<title>aws_iam_role_policy.comparison_worker_sqs&#45;&gt;aws_sqs_queue.comparison_engine_queue</title>
<path fill="none" stroke="black" d="M1036.6,-264.55C1012.23,-261.12 986.66,-257.53 961.97,-254.06"/>
<polygon fill="black" stroke="black" points="962.58,-250.61 952.19,-252.69 961.61,-257.55 962.58,-250.61"/>
</g>
<!-- aws_launch_template.comparison_engine_launch_template&#45;&gt;aws_iam_instance_profile.comparison_worker -->
<g id="edge25" class="edge">
<title>aws_launch_template.comparison_engine_launch_template&#45;&gt;aws_iam_instance_profile.comparison_worker</title>
<path fill="none" stroke="black" d="M1369.48,-433.36C1359.19,-432.57 1348.9,-431.78 1338.73,-431"/>
<polygon fill="black" stroke="black" points="1339.05,-427.51 1328.81,-430.23 1338.51,-434.49 1339.05,-427.51"/>
</g>
<!-- aws_security_group.ec2_sg_comparison_engine -->
<g id="node20" class="node">
<title>aws_security_group.ec2_sg_comparison_engine</title>
<polygon fill="none" stroke="black" points="1333.75,-490 1004.25,-490 1004.25,-454 1333.75,-454 1333.75,-490"/>
<text xml:space="preserve" text-anchor="middle" x="1169" y="-468.45" font-family="sans-serif" font-size="14.00">aws_security_group.ec2_sg_comparison_engine</text>
</g>
<!-- aws_launch_template.comparison_engine_launch_template&#45;&gt;aws_security_group.ec2_sg_comparison_engine -->
<g id="edge26" class="edge">
<title>aws_launch_template.comparison_engine_launch_template&#45;&gt;aws_security_group.ec2_sg_comparison_engine</title>
<path fill="none" stroke="black" d="M1369.48,-460.6C1361.45,-461.06 1353.42,-461.52 1345.44,-461.97"/>
<polygon fill="black" stroke="black" points="1345.5,-458.47 1335.72,-462.53 1345.9,-465.45 1345.5,-458.47"/>
</g>
<!-- aws_security_group.ec2_sg_comparison_engine&#45;&gt;aws_subnet.comparison_engine_rds_1 -->
<g id="edge27" class="edge">
<title>aws_security_group.ec2_sg_comparison_engine&#45;&gt;aws_subnet.comparison_engine_rds_1</title>
<path fill="none" stroke="black" d="M1003.78,-459.29C990.52,-458.26 977.18,-457.23 964.07,-456.22"/>
<polygon fill="black" stroke="black" points="964.37,-452.73 954.13,-455.45 963.83,-459.71 964.37,-452.73"/>
</g>
<!-- aws_security_group.ec2_sg_comparison_engine&#45;&gt;aws_subnet.comparison_engine_rds_2 -->
<g id="edge28" class="edge">
<title>aws_security_group.ec2_sg_comparison_engine&#45;&gt;aws_subnet.comparison_engine_rds_2</title>
<path fill="none" stroke="black" d="M1003.78,-484.71C990.52,-485.74 977.18,-486.77 964.07,-487.78"/>
<polygon fill="black" stroke="black" points="963.83,-484.29 954.13,-488.55 964.37,-491.27 963.83,-484.29"/>
</g>
<!-- aws_security_group.rds&#45;&gt;aws_security_group.ec2_sg_comparison_engine -->
<g id="edge29" class="edge">
<title>aws_security_group.rds&#45;&gt;aws_security_group.ec2_sg_comparison_engine</title>
<path fill="none" stroke="black" d="M1488.61,-496.54C1446.95,-493.33 1394.98,-489.33 1345.17,-485.49"/>
<polygon fill="black" stroke="black" points="1345.66,-482.02 1335.42,-484.74 1345.12,-489 1345.66,-482.02"/>
</g>
<!-- aws_security_group.sqs_endpoint -->
<g id="node22" class="node">
<title>aws_security_group.sqs_endpoint</title>
<polygon fill="none" stroke="black" points="1692.12,-413 1454.88,-413 1454.88,-377 1692.12,-377 1692.12,-413"/>
<text xml:space="preserve" text-anchor="middle" x="1573.5" y="-391.45" font-family="sans-serif" font-size="14.00">aws_security_group.sqs_endpoint</text>
</g>
<!-- aws_security_group.sqs_endpoint&#45;&gt;aws_security_group.ec2_sg_comparison_engine -->
<g id="edge30" class="edge">
<title>aws_security_group.sqs_endpoint&#45;&gt;aws_security_group.ec2_sg_comparison_engine</title>
<path fill="none" stroke="black" d="M1454.61,-401.91C1426.24,-405.95 1396.43,-412.25 1369.75,-422 1351.92,-428.52 1351.48,-438.21 1333.75,-445 1328.72,-446.93 1323.55,-448.72 1318.28,-450.38"/>
<polygon fill="black" stroke="black" points="1317.41,-446.99 1308.82,-453.19 1319.4,-453.7 1317.41,-446.99"/>
</g>
<!-- aws_sqs_queue.comparison_engine_dlq -->
<g id="node23" class="node">
<title>aws_sqs_queue.comparison_engine_dlq</title>
<polygon fill="none" stroke="black" points="632,-252 354.25,-252 354.25,-216 632,-216 632,-252"/>
<text xml:space="preserve" text-anchor="middle" x="493.12" y="-230.45" font-family="sans-serif" font-size="14.00">aws_sqs_queue.comparison_engine_dlq</text>
</g>
<!-- aws_sqs_queue.comparison_engine_queue&#45;&gt;aws_sqs_queue.comparison_engine_dlq -->
<g id="edge31" class="edge">
<title>aws_sqs_queue.comparison_engine_queue&#45;&gt;aws_sqs_queue.comparison_engine_dlq</title>
<path fill="none" stroke="black" d="M667.92,-234C659.83,-234 651.7,-234 643.61,-234"/>
<polygon fill="black" stroke="black" points="643.72,-230.5 633.72,-234 643.72,-237.5 643.72,-230.5"/>
</g>
<!-- aws_vpc.comparison_engine_vpc -->
<g id="node29" class="node">
<title>aws_vpc.comparison_engine_vpc</title>
<polygon fill="none" stroke="black" points="608.38,-413 377.88,-413 377.88,-377 608.38,-377 608.38,-413"/>
<text xml:space="preserve" text-anchor="middle" x="493.12" y="-391.45" font-family="sans-serif" font-size="14.00">aws_vpc.comparison_engine_vpc</text>
</g>
<!-- aws_subnet.comparison_engine_rds_1&#45;&gt;aws_vpc.comparison_engine_vpc -->
<g id="edge32" class="edge">
<title>aws_subnet.comparison_engine_rds_1&#45;&gt;aws_vpc.comparison_engine_vpc</title>
<path fill="none" stroke="black" d="M697.77,-426.52C672.41,-422.6 645.56,-418.44 619.97,-414.48"/>
<polygon fill="black" stroke="black" points="620.61,-411.04 610.19,-412.97 619.54,-417.96 620.61,-411.04"/>
</g>
<!-- aws_subnet.comparison_engine_rds_2&#45;&gt;aws_vpc.comparison_engine_vpc -->
<g id="edge33" class="edge">
<title>aws_subnet.comparison_engine_rds_2&#45;&gt;aws_vpc.comparison_engine_vpc</title>
<path fill="none" stroke="black" d="M700.07,-480.56C689.15,-478.01 678.31,-475.17 668,-472 622.81,-458.12 573.78,-435.68 539.34,-418.59"/>
<polygon fill="black" stroke="black" points="541,-415.51 530.49,-414.16 537.86,-421.77 541,-415.51"/>
</g>
<!-- aws_subnet.comparison_engine_subnet_ec2_1&#45;&gt;aws_vpc.comparison_engine_vpc -->
<g id="edge34" class="edge">
<title>aws_subnet.comparison_engine_subnet_ec2_1&#45;&gt;aws_vpc.comparison_engine_vpc</title>
<path fill="none" stroke="black" d="M1411.35,-349.07C1195.29,-359.89 816.22,-378.87 619.91,-388.7"/>
<polygon fill="black" stroke="black" points="620.01,-385.19 610.2,-389.19 620.36,-392.18 620.01,-385.19"/>
</g>
<!-- aws_subnet.comparison_engine_subnet_ec2_2&#45;&gt;aws_vpc.comparison_engine_vpc -->
<g id="edge35" class="edge">
<title>aws_subnet.comparison_engine_subnet_ec2_2&#45;&gt;aws_vpc.comparison_engine_vpc</title>
<path fill="none" stroke="black" d="M1411.35,-302.76C1385.4,-305.23 1358.84,-307.72 1333.75,-310 1038,-336.91 962.74,-330.7 668,-367 649.82,-369.24 630.63,-371.96 611.89,-374.82"/>
<polygon fill="black" stroke="black" points="611.46,-371.35 602.11,-376.34 612.53,-378.27 611.46,-371.35"/>
</g>
<!-- aws_vpc_endpoint.sqs -->
<g id="node30" class="node">
<title>aws_vpc_endpoint.sqs</title>
<polygon fill="none" stroke="black" points="2058.75,-305 1898,-305 1898,-269 2058.75,-269 2058.75,-305"/>
<text xml:space="preserve" text-anchor="middle" x="1978.38" y="-283.45" font-family="sans-serif" font-size="14.00">aws_vpc_endpoint.sqs</text>
</g>
<!-- aws_vpc_endpoint.sqs&#45;&gt;data.aws_region.current -->
<g id="edge36" class="edge">
<title>aws_vpc_endpoint.sqs&#45;&gt;data.aws_region.current</title>
<path fill="none" stroke="black" d="M1897.69,-274.53C1776.16,-255.64 1537.17,-219.01 1333.75,-191 1189.07,-171.08 1021.18,-150.31 917.54,-137.77"/>
<polygon fill="black" stroke="black" points="918.01,-134.3 907.66,-136.57 917.17,-141.25 918.01,-134.3"/>
</g>
<!-- aws_vpc_endpoint.sqs&#45;&gt;aws_security_group.sqs_endpoint -->
<g id="edge37" class="edge">
<title>aws_vpc_endpoint.sqs&#45;&gt;aws_security_group.sqs_endpoint</title>
<path fill="none" stroke="black" d="M1897.52,-287.22C1869.08,-290.5 1838,-298.03 1813.25,-314 1789.01,-329.64 1801.73,-352.74 1777.25,-368 1755.3,-381.69 1729.43,-389.77 1703.64,-394.33"/>
<polygon fill="black" stroke="black" points="1703.43,-390.82 1694.1,-395.84 1704.52,-397.74 1703.43,-390.82"/>
</g>
<!-- aws_vpc_endpoint.sqs&#45;&gt;aws_subnet.comparison_engine_subnet_ec2_1 -->
<g id="edge38" class="edge">
<title>aws_vpc_endpoint.sqs&#45;&gt;aws_subnet.comparison_engine_subnet_ec2_1</title>
<path fill="none" stroke="black" d="M1897.53,-297.8C1860.88,-302.76 1816.86,-308.69 1777.25,-314 1760.28,-316.27 1742.51,-318.65 1724.84,-321.01"/>
<polygon fill="black" stroke="black" points="1724.51,-317.52 1715.06,-322.31 1725.44,-324.46 1724.51,-317.52"/>
</g>
<!-- aws_vpc_endpoint.sqs&#45;&gt;aws_subnet.comparison_engine_subnet_ec2_2 -->
<g id="edge39" class="edge">
<title>aws_vpc_endpoint.sqs&#45;&gt;aws_subnet.comparison_engine_subnet_ec2_2</title>
<path fill="none" stroke="black" d="M1897.78,-287C1854.62,-287 1799.52,-287 1747.08,-287"/>
<polygon fill="black" stroke="black" points="1747.1,-283.5 1737.09,-287 1747.09,-290.5 1747.1,-283.5"/>
</g>
<!-- aws_wafv2_web_acl.comparison_engine -->
<g id="node31" class="node">
<title>aws_wafv2_web_acl.comparison_engine</title>
<polygon fill="none" stroke="black" points="2116.88,-171 1839.88,-171 1839.88,-135 2116.88,-135 2116.88,-171"/>
<text xml:space="preserve" text-anchor="middle" x="1978.38" y="-149.45" font-family="sans-serif" font-size="14.00">aws_wafv2_web_acl.comparison_engine</text>
</g>
<!-- aws_wafv2_web_acl_association.comparison_engine -->
<g id="node32" class="node">
<title>aws_wafv2_web_acl_association.comparison_engine</title>
<polygon fill="none" stroke="black" points="2536,-144 2179.5,-144 2179.5,-108 2536,-108 2536,-144"/>
<text xml:space="preserve" text-anchor="middle" x="2357.75" y="-122.45" font-family="sans-serif" font-size="14.00">aws_wafv2_web_acl_association.comparison_engine</text>
</g>
<!-- aws_wafv2_web_acl_association.comparison_engine&#45;&gt;aws_api_gateway_stage.production -->
<g id="edge40" class="edge">
<title>aws_wafv2_web_acl_association.comparison_engine&#45;&gt;aws_api_gateway_stage.production</title>
<path fill="none" stroke="black" d="M2179.11,-113.29C2156.83,-111.7 2134.34,-110.09 2112.9,-108.55"/>
<polygon fill="black" stroke="black" points="2113.18,-105.06 2102.95,-107.84 2112.68,-112.05 2113.18,-105.06"/>
</g>
<!-- aws_wafv2_web_acl_association.comparison_engine&#45;&gt;aws_wafv2_web_acl.comparison_engine -->
<g id="edge41" class="edge">
<title>aws_wafv2_web_acl_association.comparison_engine&#45;&gt;aws_wafv2_web_acl.comparison_engine</title>
<path fill="none" stroke="black" d="M2179.11,-138.71C2162.26,-139.92 2145.29,-141.13 2128.74,-142.31"/>
<polygon fill="black" stroke="black" points="2128.59,-138.81 2118.87,-143.02 2129.09,-145.8 2128.59,-138.81"/>
</g>
</g>
</svg>
